<?xml version="1.0" encoding="iso-8859-1"?>
<!-- Uploaded to: SVG Repo, www.svgrepo.com, Generator: SVG Repo Mixer Tools -->
<svg fill="#484848" height="800px" width="800px" version="1.1" id="Layer_1" xmlns="http://www.w3.org/2000/svg" xmlns:xlink="http://www.w3.org/1999/xlink" 
	 viewBox="0 0 508 508" xml:space="preserve">
<g>
	<g>
		<path d="M356.75,197.1c-11,0-34.3,7.5-55.9,18.3c9-29,10.3-63.5,10.3-64.1c0-25.7-25.6-46.5-57.1-46.5s-57.1,20.9-57.1,46.5
			c0,11,7.5,34.4,18.4,56c-29-9-63.4-10.2-63.9-10.2c-25.7,0-46.5,25.6-46.5,57.1c0,31.5,20.9,57.1,46.5,57.1
			c10.9,0,34.1-7.4,55.6-18.2c-8.9,28.9-10.1,63-10.1,63.6c0,25.7,25.6,46.5,57.1,46.5s57.1-20.9,57.1-46.5c0-10.8-7.4-34-18.1-55.5
			c28.9,8.9,63.2,10.1,63.7,10.1c25.7,0,46.5-25.6,46.5-57.1S382.35,197.1,356.75,197.1z M216.35,254.2v0.4
			c-20.1,15.2-56.2,28.5-64.9,28.5s-18.3-11.9-18.3-28.9s9.6-28.9,18.3-28.9c17.3,0,52.2,5.7,68.3,13.5
			C217.55,243.7,216.35,248.9,216.35,254.2z M254.05,374.9c-17,0-28.9-9.6-28.9-18.3c0-17.2,5.7-51.9,13.5-68.1
			c5,2.3,10.4,3.4,16,3.3c15.1,20.1,28.3,56.1,28.3,64.7C282.95,365.3,271.05,374.9,254.05,374.9z M244.55,254
			c0-5.2,4.2-9.5,9.5-9.5c5.2,0,9.5,4.2,9.5,9.5c0,5.2-4.2,9.5-9.5,9.5C248.85,263.5,244.55,259.2,244.55,254z M269.25,219.8
			c-4.7-2.1-9.9-3.2-15.2-3.2h-0.2c-15.2-20-28.6-56.4-28.6-65.2c0-8.7,11.9-18.3,28.9-18.3c17,0,28.9,9.6,28.9,18.3
			C282.95,170.1,276.65,204.2,269.25,219.8z M356.65,283.1c-17.3,0-52.2-5.7-68.3-13.5c2.2-4.8,3.3-10,3.3-15.3v-0.4
			c20.1-15.2,56.2-28.5,64.9-28.5c8.8-0.1,18.4,11.8,18.4,28.8S365.35,283.1,356.65,283.1z"/>
	</g>
</g>
<g>
	<g>
		<path d="M465.75,0H42.35c-23.3,0-42.3,19-42.3,42.3v423.3c0,23.4,19,42.4,42.3,42.4h423.3c23.3,0,42.3-19,42.3-42.3V42.3
			C508.05,19,489.05,0,465.75,0z M465.75,479.8H42.35c-7.8,0-14.1-6.3-14.1-14.1V42.3c0-7.8,6.3-14.1,14.1-14.1h423.3
			c7.8,0,14.1,6.3,14.1,14.1v423.4h0.1C479.85,473.5,473.55,479.8,465.75,479.8z"/>
	</g>
</g>
<g>
	<g>
		<path d="M254.05,56.6c-108.8,0-197.4,88.6-197.4,197.4s88.5,197.4,197.4,197.4s197.4-88.6,197.4-197.4S362.85,56.6,254.05,56.6z
			 M254.05,423.2c-93.3,0-169.2-75.9-169.2-169.2s75.9-169.2,169.2-169.2s169.2,75.9,169.2,169.2S347.35,423.2,254.05,423.2z"/>
	</g>
</g>
</svg>