<?xml version="1.0" encoding="UTF-8"?>
<svg width="18px" height="13px" viewBox="0 0 18 13" version="1.1" xmlns="http://www.w3.org/2000/svg" xmlns:xlink="http://www.w3.org/1999/xlink">
    <!-- Generator: Sketch 59.1 (86144) - https://sketch.com -->
    <title>icon-category-auto-parts</title>
    <desc>Created with Sketch.</desc>
    <g id="Nav---Menu" stroke="none" stroke-width="1" fill="none" fill-rule="evenodd">
        <g id="UI-Testing---Nav-Menu---Root---M" transform="translate(-19.000000, -416.000000)" fill="#484848" fill-rule="nonzero">
            <g id="Group-6">
                <g id="Mobile/Screens/Navigation/Menu">
                    <g id="Menu-Content-[16v]" transform="translate(0.000000, 129.000000)">
                        <g id="Shop-All-[16v]" transform="translate(0.000000, 216.000000)">
                            <g id="LIST-[16v]" transform="translate(0.000000, 17.000000)">
                                <g id="Menu-Content---List-+-Icons" transform="translate(0.000000, 40.000000)">
                                    <g id="Menu-Content---List----Icons-[12v-c]" transform="translate(19.000000, 14.000000)">
                                        <path d="M17.1,2.52 C17.5968,2.52 18,2.89548 18,3.36 L18,3.36 L18,11.76 C18,12.22452 17.5968,12.6 17.1,12.6 L17.1,12.6 L0.9,12.6 C0.4032,12.6 0,12.22452 0,11.76 L0,11.76 L0,3.36 C0,2.89548 0.4032,2.52 0.9,2.52 L0.9,2.52 Z M13.5,5.04 L11.7,5.04 L11.7,6.72 L9.9,6.72 L9.9,8.4 L11.7,8.4 L11.7,10.08 L13.5,10.08 L13.5,8.4 L15.3,8.4 L15.3,6.72 L13.5,6.72 L13.5,5.04 Z M7.2,6.72 L2.7,6.72 L2.7,8.4 L7.2,8.4 L7.2,6.72 Z M5.4,0 L5.4,1.68 L1.8,1.68 L1.8,0 L5.4,0 Z M16.2,0 L16.2,1.68 L12.6,1.68 L12.6,0 L16.2,0 Z" id="icon-category-auto-parts"></path>
                                    </g>
                                </g>
                            </g>
                        </g>
                    </g>
                </g>
            </g>
        </g>
    </g>
</svg>