<?xml version="1.0" encoding="UTF-8"?>
<svg width="16px" height="18px" viewBox="0 0 16 18" version="1.1" xmlns="http://www.w3.org/2000/svg" xmlns:xlink="http://www.w3.org/1999/xlink">
    <!-- Generator: Sketch 59.1 (86144) - https://sketch.com -->
    <title>icon-category-interior-accessories</title>
    <desc>Created with Sketch.</desc>
    <g id="Nav---Menu" stroke="none" stroke-width="1" fill="none" fill-rule="evenodd">
        <g id="UI-Testing---Nav-Menu---Root---M" transform="translate(-20.000000, -449.000000)" fill="#484848">
            <g id="Group-6">
                <g id="Mobile/Screens/Navigation/Menu">
                    <g id="Menu-Content-[16v]" transform="translate(0.000000, 129.000000)">
                        <g id="Shop-All-[16v]" transform="translate(0.000000, 216.000000)">
                            <g id="LIST-[16v]" transform="translate(0.000000, 17.000000)">
                                <g id="Menu-Content---List-+-Icons" transform="translate(0.000000, 40.000000)">
                                    <g id="Menu-Content---List----Icons-[12v-c]" transform="translate(19.000000, 14.000000)">
                                        <path d="M12.5714286,48.4285714 L13.8571429,48.4285714 L13.8571429,38.1428571 L12.5714286,38.1428571 L12.5714286,48.4285714 Z M10,48.4285714 L11.2857143,48.4285714 L11.2857143,38.1428571 L10,38.1428571 L10,48.4285714 Z M7.42857143,48.4285714 L8.71428571,48.4285714 L8.71428571,42 L7.42857143,42 L7.42857143,48.4285714 Z M14.5867931,35.5714286 C15.6024191,35.5714286 16.4285714,36.3382421 16.4285714,37.2809202 L16.4285714,37.2809202 L16.4285714,49.2905084 C16.4285714,50.2331865 15.6024191,51 14.5867931,51 L14.5867931,51 L6.69892122,51 C5.68329519,51 4.85714286,50.2331865 4.85714286,49.2905084 L4.85714286,49.2905084 L4.85714286,43.5749078 C4.85714286,42.6322297 5.67152664,41.9719181 5.89689441,41.7021133 C6.46413861,41.0237783 6.79306963,40.4257294 7.03079438,39.8462499 C7.28205296,39.2356392 7.57862046,37.2809202 7.57862046,37.2809202 C7.57862046,36.3382421 8.40536123,35.5714286 9.42039882,35.5714286 L9.42039882,35.5714286 Z M10.7296502,33 C11.7452762,33 12.5714286,33.7673325 12.5714286,34.7099772 L12.5714286,34.7099772 L12.5714286,34.8579823 L8.61131089,34.8579823 C7.59627329,34.8579823 6.76953253,35.6247686 6.76953253,36.5679595 C6.76953253,36.5679595 6.47296502,38.5220632 6.22170644,39.1326523 C5.98398169,39.7126574 5.65505067,40.3101391 5.08780647,40.9889962 C4.86243871,41.2582453 4.04805492,41.9185335 4.04805492,42.8611783 L4.04805492,42.8611783 L4.04805492,48.4285714 L2.84177836,48.4285714 C1.82615234,48.4285714 1,47.6617851 1,46.7185942 L1,46.7185942 L1,41.0037421 C1,40.0610973 1.81438379,39.4008091 2.03975155,39.1310139 C2.60699575,38.4527029 2.93533835,37.8546751 3.17365152,37.2752162 C3.4249101,36.6640809 3.72147761,34.7099772 3.72147761,34.7099772 C3.72147761,33.7673325 4.54821837,33 5.56325597,33 L5.56325597,33 Z" id="icon-category-interior-accessories"></path>
                                    </g>
                                </g>
                            </g>
                        </g>
                    </g>
                </g>
            </g>
        </g>
    </g>
</svg>