<svg viewBox="0 0 18 18" xmlns="http://www.w3.org/2000/svg"><path d="m9.82 0a19.06 19.06 0 0 1 4.74 1.35c.44.22.53.24.73.5a1.6 1.6 0 0 1 .16.73v13.9a1.54 1.54 0 0 1 -1.54 1.52h-9.29a1.49 1.49 0 0 1 -1.48-1.49v-13.87h2.12s.36.37.55.37c.5-.01 2.96-3.01 4.01-3.01zm-.61 6.3s-2.21 3.29-2.21 4.53a2.26 2.26 0 1 0 4.52 0c-.05-1.24-2.31-4.52-2.31-4.52zm4.79-3.52c-.18-.38-2.94-1.17-3.73-1.06-.52.06-1.75 1-1.52 1.27s2.95 1.27 4 1c.55-.07 1.39-.88 1.25-1.21zm-8.26-2.78v1.66h-3.2v-1.66z" fill="#484848" fill-rule="evenodd"/></svg>