<?xml version="1.0" encoding="UTF-8"?>
<svg width="18px" height="18px" viewBox="0 0 18 18" version="1.1" xmlns="http://www.w3.org/2000/svg" xmlns:xlink="http://www.w3.org/1999/xlink">
    <!-- Generator: Sketch 59.1 (86144) - https://sketch.com -->
    <title>icon-category-tire</title>
    <desc>Created with Sketch.</desc>
    <g id="Nav---Menu" stroke="none" stroke-width="1" fill="none" fill-rule="evenodd">
        <g id="UI-Testing---Nav-Menu---Root---M" transform="translate(-19.000000, -485.000000)" fill="#484848">
            <g id="Group-6">
                <g id="Mobile/Screens/Navigation/Menu">
                    <g id="Menu-Content-[16v]" transform="translate(0.000000, 129.000000)">
                        <g id="Shop-All-[16v]" transform="translate(0.000000, 216.000000)">
                            <g id="LIST-[16v]" transform="translate(0.000000, 17.000000)">
                                <g id="Menu-Content---List-+-Icons" transform="translate(0.000000, 40.000000)">
                                    <g id="Menu-Content---List----Icons-[12v-c]" transform="translate(19.000000, 14.000000)">
                                        <path d="M9,71.7 C5.526,71.7 2.7,74.5269 2.7,78 C2.7,81.474 5.526,84.3 9,84.3 C12.474,84.3 15.3,81.474 15.3,78 C15.3,74.5269 12.474,71.7 9,71.7 Z M12.8403,75.6879 L10.161,76.6347 C10.08,76.5654 9.9927,76.5033 9.9,76.4493 L9.9,73.5918 C11.1501,73.8465 12.2004,74.6295 12.8403,75.6879 Z M8.1,73.5918 L8.1,76.4502 C8.0064,76.5051 7.92,76.5663 7.839,76.6356 L5.1597,75.6879 C5.7996,74.6295 6.8499,73.8465 8.1,73.5918 Z M4.5,78 C4.5,77.7903 4.5342,77.5887 4.5621,77.3862 L7.2333,78.3303 C7.2477,78.4077 7.272,78.4815 7.2963,78.5544 L5.4018,80.673 C4.8429,79.9242 4.5,79.0044 4.5,78 Z M6.7455,81.8718 L8.6319,79.7622 C8.7507,79.7856 8.8731,79.8 9,79.8 C9.1269,79.8 9.2493,79.7856 9.3681,79.7622 L11.2545,81.8718 C10.5894,82.2606 9.8253,82.5 9,82.5 C8.1747,82.5 7.4106,82.2606 6.7455,81.8718 Z M12.5991,80.6739 L10.7046,78.5553 C10.7289,78.4824 10.7532,78.4086 10.7676,78.3312 L13.4388,77.3871 C13.4658,77.5887 13.5,77.7903 13.5,78 C13.5,79.0044 13.1571,79.9242 12.5991,80.6739 Z M9,69 C4.0374,69 0,73.0374 0,78 C0,82.9626 4.0374,87 9,87 C13.9626,87 18,82.9626 18,78 C18,73.0374 13.9626,69 9,69 Z M9,85.2 C5.0301,85.2 1.8,81.9699 1.8,78 C1.8,74.0301 5.0301,70.8 9,70.8 C12.9699,70.8 16.2,74.0301 16.2,78 C16.2,81.9699 12.9699,85.2 9,85.2 Z" id="icon-category-exterior-accessories"></path>
                                    </g>
                                </g>
                            </g>
                        </g>
                    </g>
                </g>
            </g>
        </g>
    </g>
</svg>