<?xml version="1.0" encoding="UTF-8"?>
<svg width="18px" height="15px" viewBox="0 0 18 15" version="1.1" xmlns="http://www.w3.org/2000/svg" xmlns:xlink="http://www.w3.org/1999/xlink">
    <!-- Generator: Sketch 59.1 (86144) - https://sketch.com -->
    <title>icon-category-tools</title>
    <desc>Created with Sketch.</desc>
    <g id="Nav---Menu" stroke="none" stroke-width="1" fill="none" fill-rule="evenodd">
        <g id="UI-Testing---Nav-Menu---Root---M" transform="translate(-19.000000, -559.000000)" fill="#484848" fill-rule="nonzero">
            <g id="Group-6">
                <g id="Mobile/Screens/Navigation/Menu">
                    <g id="Menu-Content-[16v]" transform="translate(0.000000, 129.000000)">
                        <g id="Shop-All-[16v]" transform="translate(0.000000, 216.000000)">
                            <g id="LIST-[16v]" transform="translate(0.000000, 17.000000)">
                                <g id="Menu-Content---List-+-Icons" transform="translate(0.000000, 40.000000)">
                                    <g id="Menu-Content---List----Icons-[12v-c]" transform="translate(19.000000, 14.000000)">
                                        <path d="M12.5218367,143 L3.91329428,143 C2.18689024,143 0.782915232,144.404758 0.782915232,146.130379 C0.782915232,147.496007 1.66724731,148.647986 2.88966033,149.074501 L1.26264582,153.956327 L7.04367333,153.956327 L7.04367333,152.391137 L7.82626809,152.391137 C9.55267214,152.391137 10.9566471,150.98638 10.9566471,149.260758 L12.5218367,149.260758 C12.953829,149.260758 13.3044314,148.910938 13.3044314,148.478163 L13.3044314,143.782595 C13.3044314,143.34982 12.953829,143 12.5218367,143 Z M7.82626809,154.738921 C8.09782847,154.738921 8.34904139,154.879788 8.49147364,155.109871 C8.63390589,155.340737 8.64721,155.627949 8.52590781,155.871336 L8.52590781,155.871336 L7.74331305,157.436526 C7.61105453,157.701825 7.34027674,157.8693 7.04367333,157.8693 L7.04367333,157.8693 L1.56550999,157.8693 C1.26890658,157.8693 0.998128792,157.701825 0.865087682,157.437308 L0.865087682,157.437308 L0.0824929202,155.872119 C-0.038809268,155.628732 -0.025505157,155.341519 0.11692709,155.110654 C0.259359336,154.879788 0.51135485,154.738921 0.782915232,154.738921 L0.782915232,154.738921 Z M9.39145762,149.260758 C9.39145762,150.124743 8.68947011,150.825948 7.82626809,150.825948 L7.04367333,150.825948 L7.04367333,149.260758 L9.39145762,149.260758 Z M14.0870262,143.928157 C14.7506665,144.162936 15.2757876,144.687274 15.5129138,145.347784 L15.5129138,145.347784 L18,145.347784 L18,146.913756 L15.5129138,146.913756 C15.2757876,147.573484 14.7506665,148.097822 14.0870262,148.334948 L14.0870262,148.334948 Z" id="icon-category-tools"></path>
                                    </g>
                                </g>
                            </g>
                        </g>
                    </g>
                </g>
            </g>
        </g>
    </g>
</svg>
